<?xml version="1.0" standalone="no"?>
<!DOCTYPE svg PUBLIC "-//W3C//DTD SVG 20010904//EN"
 "http://www.w3.org/TR/2001/REC-SVG-20010904/DTD/svg10.dtd">
<svg version="1.0" xmlns="http://www.w3.org/2000/svg"
 width="116.000000pt" height="116.000000pt" viewBox="0 0 116.000000 116.000000"
 preserveAspectRatio="xMidYMid meet">
<metadata>
Created by potrace 1.14, written by Peter Selinger 2001-2017
</metadata>
<g transform="translate(0.000000,116.000000) scale(0.100000,-0.100000)"
fill="#000000" stroke="none">
<path d="M311 876 c-57 -43 -84 -90 -89 -155 -3 -37 1 -67 9 -82 7 -13 13 -27
14 -31 0 -5 24 -32 52 -62 29 -30 53 -57 53 -59 0 -3 15 -20 33 -39 17 -19 56
-61 85 -94 48 -54 53 -58 66 -41 30 39 117 126 157 158 24 19 51 41 60 49 9 8
33 28 54 44 110 84 89 256 -39 323 -49 25 -109 10 -162 -42 -24 -24 -44 -49
-44 -54 0 -23 -26 -9 -43 22 -23 42 -76 76 -130 83 -35 5 -48 1 -76 -20z"/>
</g>
</svg>
